<svg width="336" height="203" viewBox="0 0 336 203" fill="none" xmlns="http://www.w3.org/2000/svg">
<rect width="336" height="203" rx="27" fill="#303030"/>
<path d="M50.96 26.96C54.1067 26.96 56.5467 27.6133 58.28 28.92C60.0133 30.2 60.88 32.3067 60.88 35.24C60.88 38.2 60 40.3467 58.24 41.68C56.5067 42.9867 54.04 43.64 50.84 43.64H49.08V52H44.16V27.56C44.64 27.4533 45.1733 27.36 45.76 27.28C46.3733 27.2 46.9867 27.1467 47.6 27.12C48.2133 27.0667 48.8133 27.0267 49.4 27C49.9867 26.9733 50.5067 26.96 50.96 26.96ZM51.52 31.24C51.2267 31.24 50.8133 31.2533 50.28 31.28C49.7733 31.28 49.3733 31.3067 49.08 31.36V39.36H51.08C52.6533 39.36 53.84 39.0533 54.64 38.44C55.44 37.8 55.84 36.72 55.84 35.2C55.84 33.76 55.44 32.7467 54.64 32.16C53.8667 31.5467 52.8267 31.24 51.52 31.24ZM79.48 38.2C79.16 38.12 78.7733 38.04 78.32 37.96C77.8933 37.88 77.4533 37.8133 77 37.76C76.5467 37.68 76.1067 37.6267 75.68 37.6C75.2533 37.5733 74.8933 37.56 74.6 37.56C73.9067 37.56 73.2267 37.6 72.56 37.68C71.8933 37.7333 71.2133 37.8533 70.52 38.04V52H65.56V34.44C66.8667 33.96 68.2 33.5733 69.56 33.28C70.9467 32.9867 72.56 32.84 74.4 32.84C74.6667 32.84 75.04 32.8533 75.52 32.88C76.0267 32.9067 76.56 32.96 77.12 33.04C77.68 33.0933 78.24 33.1733 78.8 33.28C79.3867 33.36 79.9067 33.48 80.36 33.64L79.48 38.2ZM100.88 42.56C100.88 44.0533 100.667 45.4133 100.24 46.64C99.8133 47.84 99.2133 48.88 98.44 49.76C97.6667 50.64 96.7333 51.32 95.64 51.8C94.5733 52.28 93.3733 52.52 92.04 52.52C90.7067 52.52 89.4933 52.28 88.4 51.8C87.3333 51.32 86.4 50.64 85.6 49.76C84.8267 48.88 84.2267 47.84 83.8 46.64C83.3733 45.4133 83.16 44.0533 83.16 42.56C83.16 41.0933 83.3733 39.76 83.8 38.56C84.2533 37.3333 84.8667 36.2933 85.64 35.44C86.44 34.56 87.3867 33.8933 88.48 33.44C89.5733 32.96 90.76 32.72 92.04 32.72C93.3467 32.72 94.5333 32.96 95.6 33.44C96.6933 33.8933 97.6267 34.56 98.4 35.44C99.2 36.2933 99.8133 37.3333 100.24 38.56C100.667 39.76 100.88 41.0933 100.88 42.56ZM88.16 42.6C88.16 44.28 88.4533 45.64 89.04 46.68C89.6533 47.72 90.6267 48.24 91.96 48.24C93.24 48.24 94.2 47.72 94.84 46.68C95.5067 45.64 95.84 44.28 95.84 42.6C95.84 40.92 95.5333 39.5733 94.92 38.56C94.3333 37.52 93.3733 37 92.04 37C90.76 37 89.7867 37.52 89.12 38.56C88.48 39.5733 88.16 40.92 88.16 42.6ZM108.32 42C108.32 43.5467 108.6 44.7333 109.16 45.56C109.72 46.36 110.6 46.76 111.8 46.76C112.333 46.76 112.827 46.6933 113.28 46.56C113.76 46.4267 114.187 46.2533 114.56 46.04V37C114.187 36.92 113.853 36.8667 113.56 36.84C113.267 36.8133 112.96 36.8 112.64 36.8C109.76 36.8 108.32 38.5333 108.32 42ZM119.52 49.72C119.52 52.7867 118.773 55.0533 117.28 56.52C115.813 57.9867 113.44 58.72 110.16 58.72C108.987 58.72 107.853 58.6 106.76 58.36C105.693 58.12 104.667 57.84 103.68 57.52L104.6 53.36C105.373 53.6533 106.187 53.92 107.04 54.16C107.893 54.4267 108.96 54.56 110.24 54.56C111.093 54.56 111.8 54.4533 112.36 54.24C112.92 54.0533 113.36 53.7867 113.68 53.44C114 53.0933 114.227 52.68 114.36 52.2C114.493 51.7467 114.56 51.2533 114.56 50.72V49.96C113.867 50.2267 113.227 50.4267 112.64 50.56C112.08 50.6933 111.467 50.76 110.8 50.76C108.347 50.76 106.48 49.9867 105.2 48.44C103.947 46.8933 103.32 44.7467 103.32 42C103.32 38.9067 104.173 36.6 105.88 35.08C107.587 33.56 109.907 32.8 112.84 32.8C114.893 32.8 117.12 33.1333 119.52 33.8V49.72ZM139.48 38.2C139.16 38.12 138.773 38.04 138.32 37.96C137.893 37.88 137.453 37.8133 137 37.76C136.547 37.68 136.107 37.6267 135.68 37.6C135.253 37.5733 134.893 37.56 134.6 37.56C133.907 37.56 133.227 37.6 132.56 37.68C131.893 37.7333 131.213 37.8533 130.52 38.04V52H125.56V34.44C126.867 33.96 128.2 33.5733 129.56 33.28C130.947 32.9867 132.56 32.84 134.4 32.84C134.667 32.84 135.04 32.8533 135.52 32.88C136.027 32.9067 136.56 32.96 137.12 33.04C137.68 33.0933 138.24 33.1733 138.8 33.28C139.387 33.36 139.907 33.48 140.36 33.64L139.48 38.2ZM152.04 48.48C152.573 48.48 153.093 48.48 153.6 48.48C154.107 48.4533 154.547 48.4133 154.92 48.36V44.04C154.6 43.9867 154.213 43.9467 153.76 43.92C153.307 43.8667 152.893 43.84 152.52 43.84C152.013 43.84 151.52 43.88 151.04 43.96C150.56 44.0133 150.133 44.12 149.76 44.28C149.413 44.44 149.133 44.6667 148.92 44.96C148.707 45.2533 148.6 45.64 148.6 46.12C148.6 46.9733 148.92 47.5867 149.56 47.96C150.2 48.3067 151.027 48.48 152.04 48.48ZM151.6 32.72C153.147 32.72 154.427 32.9067 155.44 33.28C156.48 33.6267 157.307 34.1333 157.92 34.8C158.533 35.44 158.973 36.24 159.24 37.2C159.507 38.1333 159.64 39.1867 159.64 40.36V51.56C158.92 51.72 157.853 51.9067 156.44 52.12C155.027 52.3333 153.44 52.44 151.68 52.44C150.48 52.44 149.387 52.3333 148.4 52.12C147.44 51.9067 146.613 51.56 145.92 51.08C145.227 50.5733 144.693 49.9333 144.32 49.16C143.947 48.36 143.76 47.3867 143.76 46.24C143.76 45.1467 143.973 44.2267 144.4 43.48C144.827 42.7333 145.4 42.1333 146.12 41.68C146.84 41.2267 147.667 40.9067 148.6 40.72C149.533 40.5067 150.507 40.4 151.52 40.4C152.8 40.4 153.933 40.5067 154.92 40.72V40.12C154.92 39.1867 154.627 38.4133 154.04 37.8C153.453 37.16 152.44 36.84 151 36.84C150.067 36.84 149.16 36.9067 148.28 37.04C147.427 37.1733 146.733 37.3333 146.2 37.52L145.52 33.56C146.133 33.3467 147 33.16 148.12 33C149.24 32.8133 150.4 32.72 151.6 32.72ZM175.72 33C176.76 33 177.613 33.16 178.28 33.48C178.947 33.8 179.467 34.28 179.84 34.92C180.24 35.56 180.507 36.3733 180.64 37.36C180.773 38.32 180.84 39.4533 180.84 40.76V52H176.84V40.52C176.84 39.7733 176.787 39.1733 176.68 38.72C176.6 38.2667 176.48 37.92 176.32 37.68C176.187 37.44 176.013 37.28 175.8 37.2C175.613 37.12 175.413 37.08 175.2 37.08C174.96 37.08 174.707 37.1067 174.44 37.16C174.173 37.1867 173.933 37.2533 173.72 37.36C173.8 37.8667 173.867 38.4267 173.92 39.04C173.973 39.6533 174 40.3333 174 41.08V44.84H170V40.52C170 39.24 169.867 38.3467 169.6 37.84C169.36 37.3333 168.96 37.08 168.4 37.08C168.24 37.08 168.04 37.0933 167.8 37.12C167.587 37.1467 167.373 37.1867 167.16 37.24V52H163.16V33.92C164.2 33.6267 165.227 33.4 166.24 33.24C167.253 33.08 168.147 33 168.92 33C169.613 33 170.227 33.0933 170.76 33.28C171.32 33.44 171.8 33.72 172.2 34.12C172.653 33.8267 173.187 33.5733 173.8 33.36C174.413 33.12 175.053 33 175.72 33ZM192.04 48.48C192.573 48.48 193.093 48.48 193.6 48.48C194.107 48.4533 194.547 48.4133 194.92 48.36V44.04C194.6 43.9867 194.213 43.9467 193.76 43.92C193.307 43.8667 192.893 43.84 192.52 43.84C192.013 43.84 191.52 43.88 191.04 43.96C190.56 44.0133 190.133 44.12 189.76 44.28C189.413 44.44 189.133 44.6667 188.92 44.96C188.707 45.2533 188.6 45.64 188.6 46.12C188.6 46.9733 188.92 47.5867 189.56 47.96C190.2 48.3067 191.027 48.48 192.04 48.48ZM191.6 32.72C193.147 32.72 194.427 32.9067 195.44 33.28C196.48 33.6267 197.307 34.1333 197.92 34.8C198.533 35.44 198.973 36.24 199.24 37.2C199.507 38.1333 199.64 39.1867 199.64 40.36V51.56C198.92 51.72 197.853 51.9067 196.44 52.12C195.027 52.3333 193.44 52.44 191.68 52.44C190.48 52.44 189.387 52.3333 188.4 52.12C187.44 51.9067 186.613 51.56 185.92 51.08C185.227 50.5733 184.693 49.9333 184.32 49.16C183.947 48.36 183.76 47.3867 183.76 46.24C183.76 45.1467 183.973 44.2267 184.4 43.48C184.827 42.7333 185.4 42.1333 186.12 41.68C186.84 41.2267 187.667 40.9067 188.6 40.72C189.533 40.5067 190.507 40.4 191.52 40.4C192.8 40.4 193.933 40.5067 194.92 40.72V40.12C194.92 39.1867 194.627 38.4133 194.04 37.8C193.453 37.16 192.44 36.84 191 36.84C190.067 36.84 189.16 36.9067 188.28 37.04C187.427 37.1733 186.733 37.3333 186.2 37.52L185.52 33.56C186.133 33.3467 187 33.16 188.12 33C189.24 32.8133 190.4 32.72 191.6 32.72ZM203.76 42.6C203.76 41.24 203.973 39.96 204.4 38.76C204.827 37.56 205.48 36.52 206.36 35.64C207.24 34.7333 208.347 34.0267 209.68 33.52C211.04 32.9867 212.653 32.72 214.52 32.72C215.64 32.72 216.653 32.8 217.56 32.96C218.467 33.12 219.387 33.3867 220.32 33.76L219.24 37.72C218.707 37.5333 218.107 37.3733 217.44 37.24C216.8 37.08 215.973 37 214.96 37C213.787 37 212.8 37.1467 212 37.44C211.227 37.7067 210.6 38.0933 210.12 38.6C209.64 39.08 209.293 39.6667 209.08 40.36C208.867 41.0533 208.76 41.8 208.76 42.6C208.76 44.3333 209.24 45.6933 210.2 46.68C211.187 47.6667 212.853 48.16 215.2 48.16C215.973 48.16 216.773 48.1067 217.6 48C218.453 47.8933 219.227 47.72 219.92 47.48L220.64 51.52C219.947 51.7867 219.107 52 218.12 52.16C217.133 52.3467 215.973 52.44 214.64 52.44C212.72 52.44 211.067 52.1867 209.68 51.68C208.32 51.1733 207.2 50.48 206.32 49.6C205.44 48.72 204.787 47.68 204.36 46.48C203.96 45.28 203.76 43.9867 203.76 42.6ZM233.36 27.8C233.36 28.76 233.053 29.52 232.44 30.08C231.827 30.64 231.093 30.92 230.24 30.92C229.387 30.92 228.653 30.64 228.04 30.08C227.453 29.52 227.16 28.76 227.16 27.8C227.16 26.8133 227.453 26.04 228.04 25.48C228.653 24.92 229.387 24.64 230.24 24.64C231.093 24.64 231.827 24.92 232.44 25.48C233.053 26.04 233.36 26.8133 233.36 27.8ZM240.68 51.2C239.667 51.68 238.707 52 237.8 52.16C236.92 52.3467 236.107 52.44 235.36 52.44C234.08 52.44 233 52.2533 232.12 51.88C231.267 51.5067 230.573 50.9733 230.04 50.28C229.533 49.56 229.173 48.6933 228.96 47.68C228.747 46.6667 228.64 45.5067 228.64 44.2V37.28H223.44V33.2H233.56V44.84C233.56 45.96 233.76 46.8 234.16 47.36C234.587 47.8933 235.28 48.16 236.24 48.16C236.693 48.16 237.24 48.1067 237.88 48C238.52 47.8667 239.24 47.6133 240.04 47.24L240.68 51.2ZM260.88 42.56C260.88 44.0533 260.667 45.4133 260.24 46.64C259.813 47.84 259.213 48.88 258.44 49.76C257.667 50.64 256.733 51.32 255.64 51.8C254.573 52.28 253.373 52.52 252.04 52.52C250.707 52.52 249.493 52.28 248.4 51.8C247.333 51.32 246.4 50.64 245.6 49.76C244.827 48.88 244.227 47.84 243.8 46.64C243.373 45.4133 243.16 44.0533 243.16 42.56C243.16 41.0933 243.373 39.76 243.8 38.56C244.253 37.3333 244.867 36.2933 245.64 35.44C246.44 34.56 247.387 33.8933 248.48 33.44C249.573 32.96 250.76 32.72 252.04 32.72C253.347 32.72 254.533 32.96 255.6 33.44C256.693 33.8933 257.627 34.56 258.4 35.44C259.2 36.2933 259.813 37.3333 260.24 38.56C260.667 39.76 260.88 41.0933 260.88 42.56ZM248.16 42.6C248.16 44.28 248.453 45.64 249.04 46.68C249.653 47.72 250.627 48.24 251.96 48.24C253.24 48.24 254.2 47.72 254.84 46.68C255.507 45.64 255.84 44.28 255.84 42.6C255.84 40.92 255.533 39.5733 254.92 38.56C254.333 37.52 253.373 37 252.04 37C250.76 37 249.787 37.52 249.12 38.56C248.48 39.5733 248.16 40.92 248.16 42.6ZM256.52 28.12L249.56 31.48L247.76 28.8L254.08 24.36L256.52 28.12ZM264.52 33.8C265.4 33.56 266.48 33.3333 267.76 33.12C269.067 32.9067 270.48 32.8 272 32.8C273.493 32.8 274.733 33.0133 275.72 33.44C276.707 33.84 277.48 34.4267 278.04 35.2C278.627 35.9467 279.04 36.8533 279.28 37.92C279.52 38.96 279.64 40.12 279.64 41.4V52H274.72V42.04C274.72 40.28 274.52 39.0133 274.12 38.24C273.72 37.4667 272.907 37.08 271.68 37.08C271.307 37.08 270.933 37.0933 270.56 37.12C270.213 37.1467 269.84 37.1867 269.44 37.24V52H264.52V33.8ZM53.84 92.52C50.3467 92.52 47.68 91.4 45.84 89.16C44 86.92 43.08 83.7333 43.08 79.6C43.08 77.5467 43.36 75.72 43.92 74.12C44.48 72.52 45.2533 71.1733 46.24 70.08C47.2533 68.96 48.44 68.12 49.8 67.56C51.1867 66.9733 52.6933 66.68 54.32 66.68C55.2 66.68 55.9867 66.76 56.68 66.92C57.4 67.0533 58.0267 67.2133 58.56 67.4C59.0933 67.5867 59.5333 67.7867 59.88 68C60.2533 68.2133 60.5333 68.3733 60.72 68.48L59.44 72.4C58.8267 72 58.08 71.6667 57.2 71.4C56.3467 71.1067 55.36 70.96 54.24 70.96C53.4667 70.96 52.7067 71.1067 51.96 71.4C51.24 71.6667 50.5867 72.1333 50 72.8C49.44 73.44 48.9733 74.3067 48.6 75.4C48.2533 76.4933 48.08 77.8533 48.08 79.48C48.08 82.3067 48.56 84.48 49.52 86C50.5067 87.4933 52.1067 88.24 54.32 88.24C55.6 88.24 56.6533 88.0933 57.48 87.8C58.3333 87.5067 59.0133 87.2133 59.52 86.92L60.76 90.8C60.0667 91.2267 59.12 91.6267 57.92 92C56.7467 92.3467 55.3867 92.52 53.84 92.52ZM80.88 82.56C80.88 84.0533 80.6667 85.4133 80.24 86.64C79.8133 87.84 79.2133 88.88 78.44 89.76C77.6667 90.64 76.7333 91.32 75.64 91.8C74.5733 92.28 73.3733 92.52 72.04 92.52C70.7067 92.52 69.4933 92.28 68.4 91.8C67.3333 91.32 66.4 90.64 65.6 89.76C64.8267 88.88 64.2267 87.84 63.8 86.64C63.3733 85.4133 63.16 84.0533 63.16 82.56C63.16 81.0933 63.3733 79.76 63.8 78.56C64.2533 77.3333 64.8667 76.2933 65.64 75.44C66.44 74.56 67.3867 73.8933 68.48 73.44C69.5733 72.96 70.76 72.72 72.04 72.72C73.3467 72.72 74.5333 72.96 75.6 73.44C76.6933 73.8933 77.6267 74.56 78.4 75.44C79.2 76.2933 79.8133 77.3333 80.24 78.56C80.6667 79.76 80.88 81.0933 80.88 82.56ZM68.16 82.6C68.16 84.28 68.4533 85.64 69.04 86.68C69.6533 87.72 70.6267 88.24 71.96 88.24C73.24 88.24 74.2 87.72 74.84 86.68C75.5067 85.64 75.84 84.28 75.84 82.6C75.84 80.92 75.5333 79.5733 74.92 78.56C74.3333 77.52 73.3733 77 72.04 77C70.76 77 69.7867 77.52 69.12 78.56C68.48 79.5733 68.16 80.92 68.16 82.6ZM95.72 73C96.76 73 97.6133 73.16 98.28 73.48C98.9467 73.8 99.4667 74.28 99.84 74.92C100.24 75.56 100.507 76.3733 100.64 77.36C100.773 78.32 100.84 79.4533 100.84 80.76V92H96.84V80.52C96.84 79.7733 96.7867 79.1733 96.68 78.72C96.6 78.2667 96.48 77.92 96.32 77.68C96.1867 77.44 96.0133 77.28 95.8 77.2C95.6133 77.12 95.4133 77.08 95.2 77.08C94.96 77.08 94.7067 77.1067 94.44 77.16C94.1733 77.1867 93.9333 77.2533 93.72 77.36C93.8 77.8667 93.8667 78.4267 93.92 79.04C93.9733 79.6533 94 80.3333 94 81.08V84.84H90V80.52C90 79.24 89.8667 78.3467 89.6 77.84C89.36 77.3333 88.96 77.08 88.4 77.08C88.24 77.08 88.04 77.0933 87.8 77.12C87.5867 77.1467 87.3733 77.1867 87.16 77.24V92H83.16V73.92C84.2 73.6267 85.2267 73.4 86.24 73.24C87.2533 73.08 88.1467 73 88.92 73C89.6133 73 90.2267 73.0933 90.76 73.28C91.32 73.44 91.8 73.72 92.2 74.12C92.6533 73.8267 93.1867 73.5733 93.8 73.36C94.4133 73.12 95.0533 73 95.72 73ZM115.76 82.76C115.76 81.08 115.427 79.7067 114.76 78.64C114.093 77.5467 113.08 77 111.72 77C111.347 77 110.947 77.0267 110.52 77.08C110.093 77.1067 109.733 77.1333 109.44 77.16V87.48C109.76 87.6933 110.187 87.8667 110.72 88C111.253 88.1333 111.787 88.2 112.32 88.2C113.493 88.2 114.36 87.7333 114.92 86.8C115.48 85.84 115.76 84.4933 115.76 82.76ZM120.76 82.6C120.76 84.04 120.6 85.3733 120.28 86.6C119.96 87.8 119.493 88.84 118.88 89.72C118.267 90.5733 117.493 91.24 116.56 91.72C115.627 92.2 114.547 92.44 113.32 92.44C112.067 92.44 110.773 92.1333 109.44 91.52V98.6H104.52V73.8C105.427 73.5067 106.533 73.2667 107.84 73.08C109.173 72.8933 110.48 72.8 111.76 72.8C114.667 72.8 116.893 73.68 118.44 75.44C119.987 77.2 120.76 79.5867 120.76 82.6ZM123.24 82.76C123.24 81.1067 123.493 79.6533 124 78.4C124.507 77.1467 125.173 76.1067 126 75.28C126.827 74.4267 127.773 73.7867 128.84 73.36C129.907 72.9333 131 72.72 132.12 72.72C134.893 72.72 137 73.5467 138.44 75.2C139.88 76.8267 140.6 79.2133 140.6 82.36C140.6 82.68 140.587 83.0133 140.56 83.36C140.56 83.7067 140.547 83.9867 140.52 84.2H128.32C128.32 85.4267 128.827 86.4 129.84 87.12C130.853 87.8133 132.16 88.16 133.76 88.16C134.747 88.16 135.68 88.0533 136.56 87.84C137.467 87.6267 138.227 87.4133 138.84 87.2L139.52 91.4C138.667 91.6933 137.76 91.9333 136.8 92.12C135.84 92.3333 134.76 92.44 133.56 92.44C131.96 92.44 130.52 92.24 129.24 91.84C127.987 91.4133 126.907 90.8 126 90C125.12 89.1733 124.44 88.16 123.96 86.96C123.48 85.76 123.24 84.36 123.24 82.76ZM135.84 80.8C135.84 80.2933 135.773 79.8133 135.64 79.36C135.507 78.88 135.293 78.4533 135 78.08C134.707 77.7067 134.333 77.4133 133.88 77.2C133.427 76.96 132.867 76.84 132.2 76.84C131.56 76.84 131 76.9467 130.52 77.16C130.067 77.3733 129.68 77.6667 129.36 78.04C129.067 78.4133 128.827 78.84 128.64 79.32C128.48 79.8 128.373 80.2933 128.32 80.8H135.84ZM147.72 77.28H143.44V73.2H147.72V68.48L152.64 67.68V73.2H160.52V77.28H152.64V84.88C152.64 85.5733 152.707 86.1333 152.84 86.56C152.973 86.9867 153.16 87.32 153.4 87.56C153.64 87.8 153.933 87.96 154.28 88.04C154.627 88.12 155.013 88.16 155.44 88.16C155.893 88.16 156.307 88.1467 156.68 88.12C157.08 88.0933 157.453 88.0533 157.8 88C158.173 87.92 158.547 87.8133 158.92 87.68C159.32 87.5467 159.747 87.3733 160.2 87.16L160.88 91.4C159.973 91.7733 158.987 92.04 157.92 92.2C156.88 92.36 155.867 92.44 154.88 92.44C153.733 92.44 152.72 92.3467 151.84 92.16C150.96 91.9733 150.213 91.6133 149.6 91.08C148.987 90.5467 148.52 89.8 148.2 88.84C147.88 87.8533 147.72 86.5733 147.72 85V77.28ZM173.36 67.8C173.36 68.76 173.053 69.52 172.44 70.08C171.827 70.64 171.093 70.92 170.24 70.92C169.387 70.92 168.653 70.64 168.04 70.08C167.453 69.52 167.16 68.76 167.16 67.8C167.16 66.8133 167.453 66.04 168.04 65.48C168.653 64.92 169.387 64.64 170.24 64.64C171.093 64.64 171.827 64.92 172.44 65.48C173.053 66.04 173.36 66.8133 173.36 67.8ZM180.68 91.2C179.667 91.68 178.707 92 177.8 92.16C176.92 92.3467 176.107 92.44 175.36 92.44C174.08 92.44 173 92.2533 172.12 91.88C171.267 91.5067 170.573 90.9733 170.04 90.28C169.533 89.56 169.173 88.6933 168.96 87.68C168.747 86.6667 168.64 85.5067 168.64 84.2V77.28H163.44V73.2H173.56V84.84C173.56 85.96 173.76 86.8 174.16 87.36C174.587 87.8933 175.28 88.16 176.24 88.16C176.693 88.16 177.24 88.1067 177.88 88C178.52 87.8667 179.24 87.6133 180.04 87.24L180.68 91.2ZM187.72 77.28H183.44V73.2H187.72V68.48L192.64 67.68V73.2H200.52V77.28H192.64V84.88C192.64 85.5733 192.707 86.1333 192.84 86.56C192.973 86.9867 193.16 87.32 193.4 87.56C193.64 87.8 193.933 87.96 194.28 88.04C194.627 88.12 195.013 88.16 195.44 88.16C195.893 88.16 196.307 88.1467 196.68 88.12C197.08 88.0933 197.453 88.0533 197.8 88C198.173 87.92 198.547 87.8133 198.92 87.68C199.32 87.5467 199.747 87.3733 200.2 87.16L200.88 91.4C199.973 91.7733 198.987 92.04 197.92 92.2C196.88 92.36 195.867 92.44 194.88 92.44C193.733 92.44 192.72 92.3467 191.84 92.16C190.96 91.9733 190.213 91.6133 189.6 91.08C188.987 90.5467 188.52 89.8 188.2 88.84C187.88 87.8533 187.72 86.5733 187.72 85V77.28ZM213.36 67.8C213.36 68.76 213.053 69.52 212.44 70.08C211.827 70.64 211.093 70.92 210.24 70.92C209.387 70.92 208.653 70.64 208.04 70.08C207.453 69.52 207.16 68.76 207.16 67.8C207.16 66.8133 207.453 66.04 208.04 65.48C208.653 64.92 209.387 64.64 210.24 64.64C211.093 64.64 211.827 64.92 212.44 65.48C213.053 66.04 213.36 66.8133 213.36 67.8ZM220.68 91.2C219.667 91.68 218.707 92 217.8 92.16C216.92 92.3467 216.107 92.44 215.36 92.44C214.08 92.44 213 92.2533 212.12 91.88C211.267 91.5067 210.573 90.9733 210.04 90.28C209.533 89.56 209.173 88.6933 208.96 87.68C208.747 86.6667 208.64 85.5067 208.64 84.2V77.28H203.44V73.2H213.56V84.84C213.56 85.96 213.76 86.8 214.16 87.36C214.587 87.8933 215.28 88.16 216.24 88.16C216.693 88.16 217.24 88.1067 217.88 88C218.52 87.8667 219.24 87.6133 220.04 87.24L220.68 91.2ZM229.76 92C228.56 89.6267 227.333 86.8533 226.08 83.68C224.853 80.48 223.68 76.9867 222.56 73.2H227.72C227.96 74.2133 228.24 75.2933 228.56 76.44C228.907 77.5867 229.267 78.7467 229.64 79.92C230.013 81.0667 230.387 82.1867 230.76 83.28C231.16 84.3733 231.533 85.3733 231.88 86.28C232.227 85.3733 232.613 84.3733 233.04 83.28C233.467 82.1867 233.88 81.0667 234.28 79.92C234.707 78.7467 235.107 77.5867 235.48 76.44C235.88 75.2933 236.2 74.2133 236.44 73.2H241.44C240.32 76.9867 239.08 80.48 237.72 83.68C236.36 86.8533 235.08 89.6267 233.88 92H229.76ZM252.04 88.48C252.573 88.48 253.093 88.48 253.6 88.48C254.107 88.4533 254.547 88.4133 254.92 88.36V84.04C254.6 83.9867 254.213 83.9467 253.76 83.92C253.307 83.8667 252.893 83.84 252.52 83.84C252.013 83.84 251.52 83.88 251.04 83.96C250.56 84.0133 250.133 84.12 249.76 84.28C249.413 84.44 249.133 84.6667 248.92 84.96C248.707 85.2533 248.6 85.64 248.6 86.12C248.6 86.9733 248.92 87.5867 249.56 87.96C250.2 88.3067 251.027 88.48 252.04 88.48ZM251.6 72.72C253.147 72.72 254.427 72.9067 255.44 73.28C256.48 73.6267 257.307 74.1333 257.92 74.8C258.533 75.44 258.973 76.24 259.24 77.2C259.507 78.1333 259.64 79.1867 259.64 80.36V91.56C258.92 91.72 257.853 91.9067 256.44 92.12C255.027 92.3333 253.44 92.44 251.68 92.44C250.48 92.44 249.387 92.3333 248.4 92.12C247.44 91.9067 246.613 91.56 245.92 91.08C245.227 90.5733 244.693 89.9333 244.32 89.16C243.947 88.36 243.76 87.3867 243.76 86.24C243.76 85.1467 243.973 84.2267 244.4 83.48C244.827 82.7333 245.4 82.1333 246.12 81.68C246.84 81.2267 247.667 80.9067 248.6 80.72C249.533 80.5067 250.507 80.4 251.52 80.4C252.8 80.4 253.933 80.5067 254.92 80.72V80.12C254.92 79.1867 254.627 78.4133 254.04 77.8C253.453 77.16 252.44 76.84 251 76.84C250.067 76.84 249.16 76.9067 248.28 77.04C247.427 77.1733 246.733 77.3333 246.2 77.52L245.52 73.56C246.133 73.3467 247 73.16 248.12 73C249.24 72.8133 250.4 72.72 251.6 72.72ZM44.52 132V107.24H59.68V111.32H49.44V117.32H58.4V121.4H49.44V132H44.52ZM72.04 128.48C72.5733 128.48 73.0933 128.48 73.6 128.48C74.1067 128.453 74.5467 128.413 74.92 128.36V124.04C74.6 123.987 74.2133 123.947 73.76 123.92C73.3067 123.867 72.8933 123.84 72.52 123.84C72.0133 123.84 71.52 123.88 71.04 123.96C70.56 124.013 70.1333 124.12 69.76 124.28C69.4133 124.44 69.1333 124.667 68.92 124.96C68.7067 125.253 68.6 125.64 68.6 126.12C68.6 126.973 68.92 127.587 69.56 127.96C70.2 128.307 71.0267 128.48 72.04 128.48ZM71.6 112.72C73.1467 112.72 74.4267 112.907 75.44 113.28C76.48 113.627 77.3067 114.133 77.92 114.8C78.5333 115.44 78.9733 116.24 79.24 117.2C79.5067 118.133 79.64 119.187 79.64 120.36V131.56C78.92 131.72 77.8533 131.907 76.44 132.12C75.0267 132.333 73.44 132.44 71.68 132.44C70.48 132.44 69.3867 132.333 68.4 132.12C67.44 131.907 66.6133 131.56 65.92 131.08C65.2267 130.573 64.6933 129.933 64.32 129.16C63.9467 128.36 63.76 127.387 63.76 126.24C63.76 125.147 63.9733 124.227 64.4 123.48C64.8267 122.733 65.4 122.133 66.12 121.68C66.84 121.227 67.6667 120.907 68.6 120.72C69.5333 120.507 70.5067 120.4 71.52 120.4C72.8 120.4 73.9333 120.507 74.92 120.72V120.12C74.92 119.187 74.6267 118.413 74.04 117.8C73.4533 117.16 72.44 116.84 71 116.84C70.0667 116.84 69.16 116.907 68.28 117.04C67.4267 117.173 66.7333 117.333 66.2 117.52L65.52 113.56C66.1333 113.347 67 113.16 68.12 113C69.24 112.813 70.4 112.72 71.6 112.72ZM88.44 107.24C88.6267 107.8 88.8533 108.52 89.12 109.4C89.4133 110.28 89.72 111.227 90.04 112.24C90.36 113.253 90.68 114.28 91 115.32C91.32 116.36 91.6267 117.32 91.92 118.2C92.24 117.213 92.5733 116.2 92.92 115.16C93.2667 114.093 93.6 113.08 93.92 112.12C94.24 111.133 94.5333 110.213 94.8 109.36C95.0667 108.507 95.3067 107.8 95.52 107.24H99.6C99.7867 109.4 99.96 111.507 100.12 113.56C100.307 115.613 100.453 117.653 100.56 119.68C100.693 121.68 100.8 123.707 100.88 125.76C100.96 127.787 101.027 129.867 101.08 132H96.56L96.8 112.76L93.76 123.24H90.16L87.24 112.76L87.44 132H82.92C83 129.973 83.08 127.867 83.16 125.68C83.2667 123.493 83.3733 121.32 83.48 119.16C83.5867 117 83.7067 114.907 83.84 112.88C84 110.853 84.1733 108.973 84.36 107.24H88.44ZM116.36 132L115.2 126.28H108.6L107.48 132H102.36C103.533 127.12 104.72 122.68 105.92 118.68C107.12 114.653 108.28 110.84 109.4 107.24H114.76C115.933 110.867 117.093 114.72 118.24 118.8C119.413 122.853 120.547 127.253 121.64 132H116.36ZM111.96 112.04C111.693 112.973 111.44 113.867 111.2 114.72C110.987 115.547 110.773 116.373 110.56 117.2C110.373 118 110.187 118.813 110 119.64C109.84 120.467 109.68 121.32 109.52 122.2H114.36C114.2 121.32 114.04 120.467 113.88 119.64C113.72 118.813 113.533 118 113.32 117.2C113.133 116.373 112.92 115.547 112.68 114.72C112.467 113.867 112.227 112.973 111.96 112.04ZM124.52 132V107.24H139.68V111.32H129.44V117.32H138.4V121.4H129.44V132H124.52Z" fill="#E4F9E4"/>
<path d="M18.52 47.92V34.08C17.7733 34.6133 16.92 35.0933 15.96 35.52C15 35.92 14.1867 36.24 13.52 36.48L11.92 32.4C12.56 32.16 13.2533 31.8533 14 31.48C14.7467 31.1067 15.4933 30.6933 16.24 30.24C16.9867 29.7867 17.6933 29.3067 18.36 28.8C19.0267 28.2933 19.6 27.7733 20.08 27.24H23.44V47.92H28.36V52H13.32V47.92H18.52ZM27.36 73.76C27.36 74.6133 27.2 75.44 26.88 76.24C26.56 77.0133 26.1333 77.7733 25.6 78.52C25.0667 79.2667 24.4667 79.9867 23.8 80.68C23.1333 81.3733 22.4533 82.04 21.76 82.68C21.4133 83 21.0133 83.3867 20.56 83.84C20.1067 84.2667 19.68 84.72 19.28 85.2C18.88 85.6533 18.5333 86.12 18.24 86.6C17.9733 87.08 17.84 87.52 17.84 87.92H28.48V92H12.32C12.24 91.7333 12.2 91.4 12.2 91C12.2267 90.6 12.24 90.32 12.24 90.16C12.24 88.8267 12.48 87.6 12.96 86.48C13.4667 85.36 14.0933 84.3333 14.84 83.4C15.6133 82.44 16.4267 81.56 17.28 80.76C18.16 79.9333 18.9733 79.1467 19.72 78.4C20.4933 77.6533 21.12 76.9333 21.6 76.24C22.1067 75.5467 22.36 74.84 22.36 74.12C22.36 73.1067 22.0533 72.3333 21.44 71.8C20.8267 71.24 20.0533 70.96 19.12 70.96C18.3467 70.96 17.5333 71.1467 16.68 71.52C15.8267 71.8933 14.9867 72.52 14.16 73.4L11.72 69.96C12.7867 68.84 14.0133 68.0133 15.4 67.48C16.8133 66.9467 18.2133 66.68 19.6 66.68C20.6133 66.68 21.5867 66.8267 22.52 67.12C23.4533 67.4133 24.28 67.8533 25 68.44C25.72 69.0267 26.2933 69.7733 26.72 70.68C27.1467 71.56 27.36 72.5867 27.36 73.76ZM18.52 132.52C17.9067 132.52 17.2533 132.467 16.56 132.36C15.8933 132.28 15.24 132.173 14.6 132.04C13.9867 131.907 13.4133 131.76 12.88 131.6C12.3467 131.44 11.9333 131.293 11.64 131.16L12.6 127.04C13.2133 127.307 14 127.587 14.96 127.88C15.9467 128.173 17.12 128.32 18.48 128.32C20.16 128.32 21.3333 127.96 22 127.24C22.6933 126.52 23.04 125.627 23.04 124.56C23.04 123.253 22.52 122.347 21.48 121.84C20.44 121.307 19.12 121.04 17.52 121.04H16V116.96H17.84C18.3467 116.96 18.8533 116.907 19.36 116.8C19.8667 116.693 20.32 116.52 20.72 116.28C21.12 116.04 21.44 115.72 21.68 115.32C21.9467 114.92 22.08 114.413 22.08 113.8C22.08 112.893 21.8 112.187 21.24 111.68C20.7067 111.147 19.96 110.88 19 110.88C18.0667 110.88 17.1333 111.04 16.2 111.36C15.2933 111.653 14.5067 112.027 13.84 112.48L12.08 108.88C12.8 108.4 13.7467 107.92 14.92 107.44C16.12 106.933 17.4667 106.68 18.96 106.68C20.3467 106.68 21.5467 106.853 22.56 107.2C23.6 107.547 24.4533 108.04 25.12 108.68C25.7867 109.293 26.28 110.027 26.6 110.88C26.92 111.733 27.08 112.653 27.08 113.64C27.08 114.627 26.8 115.573 26.24 116.48C25.68 117.387 24.9333 118.08 24 118.56C25.28 119.093 26.2667 119.88 26.96 120.92C27.68 121.96 28.04 123.2 28.04 124.64C28.04 125.787 27.8533 126.84 27.48 127.8C27.1067 128.76 26.5333 129.6 25.76 130.32C24.9867 131.013 24 131.56 22.8 131.96C21.6 132.333 20.1733 132.52 18.52 132.52ZM21.4 153.4C20.92 154.013 20.4267 154.667 19.92 155.36C19.4133 156.053 18.9067 156.787 18.4 157.56C17.92 158.307 17.4533 159.067 17 159.84C16.5467 160.613 16.1467 161.373 15.8 162.12H21.4V153.4ZM26.32 147.24V162.12H29V166.16H26.32V172H21.4V166.16H11.08V162.56C11.5867 161.52 12.24 160.347 13.04 159.04C13.84 157.707 14.72 156.347 15.68 154.96C16.64 153.573 17.6533 152.213 18.72 150.88C19.7867 149.52 20.8533 148.307 21.92 147.24H26.32Z" fill="#ECFF75"/>
<line x1="54" y1="202.5" x2="278" y2="202.5" stroke="black" stroke-opacity="0.1"/>
</svg>

