<svg width="336" height="203" viewBox="0 0 336 203" fill="none" xmlns="http://www.w3.org/2000/svg">
<rect width="336" height="203" rx="27" fill="#303030"/>
<path d="M53.96 26.96C57.1067 26.96 59.5467 27.6133 61.28 28.92C63.0133 30.2 63.88 32.3067 63.88 35.24C63.88 38.2 63 40.3467 61.24 41.68C59.5067 42.9867 57.04 43.64 53.84 43.64H52.08V52H47.16V27.56C47.64 27.4533 48.1733 27.36 48.76 27.28C49.3733 27.2 49.9867 27.1467 50.6 27.12C51.2133 27.0667 51.8133 27.0267 52.4 27C52.9867 26.9733 53.5067 26.96 53.96 26.96ZM54.52 31.24C54.2267 31.24 53.8133 31.2533 53.28 31.28C52.7733 31.28 52.3733 31.3067 52.08 31.36V39.36H54.08C55.6533 39.36 56.84 39.0533 57.64 38.44C58.44 37.8 58.84 36.72 58.84 35.2C58.84 33.76 58.44 32.7467 57.64 32.16C56.8667 31.5467 55.8267 31.24 54.52 31.24ZM82.48 38.2C82.16 38.12 81.7733 38.04 81.32 37.96C80.8933 37.88 80.4533 37.8133 80 37.76C79.5467 37.68 79.1067 37.6267 78.68 37.6C78.2533 37.5733 77.8933 37.56 77.6 37.56C76.9067 37.56 76.2267 37.6 75.56 37.68C74.8933 37.7333 74.2133 37.8533 73.52 38.04V52H68.56V34.44C69.8667 33.96 71.2 33.5733 72.56 33.28C73.9467 32.9867 75.56 32.84 77.4 32.84C77.6667 32.84 78.04 32.8533 78.52 32.88C79.0267 32.9067 79.56 32.96 80.12 33.04C80.68 33.0933 81.24 33.1733 81.8 33.28C82.3867 33.36 82.9067 33.48 83.36 33.64L82.48 38.2ZM103.88 42.56C103.88 44.0533 103.667 45.4133 103.24 46.64C102.813 47.84 102.213 48.88 101.44 49.76C100.667 50.64 99.7333 51.32 98.64 51.8C97.5733 52.28 96.3733 52.52 95.04 52.52C93.7067 52.52 92.4933 52.28 91.4 51.8C90.3333 51.32 89.4 50.64 88.6 49.76C87.8267 48.88 87.2267 47.84 86.8 46.64C86.3733 45.4133 86.16 44.0533 86.16 42.56C86.16 41.0933 86.3733 39.76 86.8 38.56C87.2533 37.3333 87.8667 36.2933 88.64 35.44C89.44 34.56 90.3867 33.8933 91.48 33.44C92.5733 32.96 93.76 32.72 95.04 32.72C96.3467 32.72 97.5333 32.96 98.6 33.44C99.6933 33.8933 100.627 34.56 101.4 35.44C102.2 36.2933 102.813 37.3333 103.24 38.56C103.667 39.76 103.88 41.0933 103.88 42.56ZM91.16 42.6C91.16 44.28 91.4533 45.64 92.04 46.68C92.6533 47.72 93.6267 48.24 94.96 48.24C96.24 48.24 97.2 47.72 97.84 46.68C98.5067 45.64 98.84 44.28 98.84 42.6C98.84 40.92 98.5333 39.5733 97.92 38.56C97.3333 37.52 96.3733 37 95.04 37C93.76 37 92.7867 37.52 92.12 38.56C91.48 39.5733 91.16 40.92 91.16 42.6ZM111.32 42C111.32 43.5467 111.6 44.7333 112.16 45.56C112.72 46.36 113.6 46.76 114.8 46.76C115.333 46.76 115.827 46.6933 116.28 46.56C116.76 46.4267 117.187 46.2533 117.56 46.04V37C117.187 36.92 116.853 36.8667 116.56 36.84C116.267 36.8133 115.96 36.8 115.64 36.8C112.76 36.8 111.32 38.5333 111.32 42ZM122.52 49.72C122.52 52.7867 121.773 55.0533 120.28 56.52C118.813 57.9867 116.44 58.72 113.16 58.72C111.987 58.72 110.853 58.6 109.76 58.36C108.693 58.12 107.667 57.84 106.68 57.52L107.6 53.36C108.373 53.6533 109.187 53.92 110.04 54.16C110.893 54.4267 111.96 54.56 113.24 54.56C114.093 54.56 114.8 54.4533 115.36 54.24C115.92 54.0533 116.36 53.7867 116.68 53.44C117 53.0933 117.227 52.68 117.36 52.2C117.493 51.7467 117.56 51.2533 117.56 50.72V49.96C116.867 50.2267 116.227 50.4267 115.64 50.56C115.08 50.6933 114.467 50.76 113.8 50.76C111.347 50.76 109.48 49.9867 108.2 48.44C106.947 46.8933 106.32 44.7467 106.32 42C106.32 38.9067 107.173 36.6 108.88 35.08C110.587 33.56 112.907 32.8 115.84 32.8C117.893 32.8 120.12 33.1333 122.52 33.8V49.72ZM142.48 38.2C142.16 38.12 141.773 38.04 141.32 37.96C140.893 37.88 140.453 37.8133 140 37.76C139.547 37.68 139.107 37.6267 138.68 37.6C138.253 37.5733 137.893 37.56 137.6 37.56C136.907 37.56 136.227 37.6 135.56 37.68C134.893 37.7333 134.213 37.8533 133.52 38.04V52H128.56V34.44C129.867 33.96 131.2 33.5733 132.56 33.28C133.947 32.9867 135.56 32.84 137.4 32.84C137.667 32.84 138.04 32.8533 138.52 32.88C139.027 32.9067 139.56 32.96 140.12 33.04C140.68 33.0933 141.24 33.1733 141.8 33.28C142.387 33.36 142.907 33.48 143.36 33.64L142.48 38.2ZM155.04 48.48C155.573 48.48 156.093 48.48 156.6 48.48C157.107 48.4533 157.547 48.4133 157.92 48.36V44.04C157.6 43.9867 157.213 43.9467 156.76 43.92C156.307 43.8667 155.893 43.84 155.52 43.84C155.013 43.84 154.52 43.88 154.04 43.96C153.56 44.0133 153.133 44.12 152.76 44.28C152.413 44.44 152.133 44.6667 151.92 44.96C151.707 45.2533 151.6 45.64 151.6 46.12C151.6 46.9733 151.92 47.5867 152.56 47.96C153.2 48.3067 154.027 48.48 155.04 48.48ZM154.6 32.72C156.147 32.72 157.427 32.9067 158.44 33.28C159.48 33.6267 160.307 34.1333 160.92 34.8C161.533 35.44 161.973 36.24 162.24 37.2C162.507 38.1333 162.64 39.1867 162.64 40.36V51.56C161.92 51.72 160.853 51.9067 159.44 52.12C158.027 52.3333 156.44 52.44 154.68 52.44C153.48 52.44 152.387 52.3333 151.4 52.12C150.44 51.9067 149.613 51.56 148.92 51.08C148.227 50.5733 147.693 49.9333 147.32 49.16C146.947 48.36 146.76 47.3867 146.76 46.24C146.76 45.1467 146.973 44.2267 147.4 43.48C147.827 42.7333 148.4 42.1333 149.12 41.68C149.84 41.2267 150.667 40.9067 151.6 40.72C152.533 40.5067 153.507 40.4 154.52 40.4C155.8 40.4 156.933 40.5067 157.92 40.72V40.12C157.92 39.1867 157.627 38.4133 157.04 37.8C156.453 37.16 155.44 36.84 154 36.84C153.067 36.84 152.16 36.9067 151.28 37.04C150.427 37.1733 149.733 37.3333 149.2 37.52L148.52 33.56C149.133 33.3467 150 33.16 151.12 33C152.24 32.8133 153.4 32.72 154.6 32.72ZM178.72 33C179.76 33 180.613 33.16 181.28 33.48C181.947 33.8 182.467 34.28 182.84 34.92C183.24 35.56 183.507 36.3733 183.64 37.36C183.773 38.32 183.84 39.4533 183.84 40.76V52H179.84V40.52C179.84 39.7733 179.787 39.1733 179.68 38.72C179.6 38.2667 179.48 37.92 179.32 37.68C179.187 37.44 179.013 37.28 178.8 37.2C178.613 37.12 178.413 37.08 178.2 37.08C177.96 37.08 177.707 37.1067 177.44 37.16C177.173 37.1867 176.933 37.2533 176.72 37.36C176.8 37.8667 176.867 38.4267 176.92 39.04C176.973 39.6533 177 40.3333 177 41.08V44.84H173V40.52C173 39.24 172.867 38.3467 172.6 37.84C172.36 37.3333 171.96 37.08 171.4 37.08C171.24 37.08 171.04 37.0933 170.8 37.12C170.587 37.1467 170.373 37.1867 170.16 37.24V52H166.16V33.92C167.2 33.6267 168.227 33.4 169.24 33.24C170.253 33.08 171.147 33 171.92 33C172.613 33 173.227 33.0933 173.76 33.28C174.32 33.44 174.8 33.72 175.2 34.12C175.653 33.8267 176.187 33.5733 176.8 33.36C177.413 33.12 178.053 33 178.72 33ZM195.04 48.48C195.573 48.48 196.093 48.48 196.6 48.48C197.107 48.4533 197.547 48.4133 197.92 48.36V44.04C197.6 43.9867 197.213 43.9467 196.76 43.92C196.307 43.8667 195.893 43.84 195.52 43.84C195.013 43.84 194.52 43.88 194.04 43.96C193.56 44.0133 193.133 44.12 192.76 44.28C192.413 44.44 192.133 44.6667 191.92 44.96C191.707 45.2533 191.6 45.64 191.6 46.12C191.6 46.9733 191.92 47.5867 192.56 47.96C193.2 48.3067 194.027 48.48 195.04 48.48ZM194.6 32.72C196.147 32.72 197.427 32.9067 198.44 33.28C199.48 33.6267 200.307 34.1333 200.92 34.8C201.533 35.44 201.973 36.24 202.24 37.2C202.507 38.1333 202.64 39.1867 202.64 40.36V51.56C201.92 51.72 200.853 51.9067 199.44 52.12C198.027 52.3333 196.44 52.44 194.68 52.44C193.48 52.44 192.387 52.3333 191.4 52.12C190.44 51.9067 189.613 51.56 188.92 51.08C188.227 50.5733 187.693 49.9333 187.32 49.16C186.947 48.36 186.76 47.3867 186.76 46.24C186.76 45.1467 186.973 44.2267 187.4 43.48C187.827 42.7333 188.4 42.1333 189.12 41.68C189.84 41.2267 190.667 40.9067 191.6 40.72C192.533 40.5067 193.507 40.4 194.52 40.4C195.8 40.4 196.933 40.5067 197.92 40.72V40.12C197.92 39.1867 197.627 38.4133 197.04 37.8C196.453 37.16 195.44 36.84 194 36.84C193.067 36.84 192.16 36.9067 191.28 37.04C190.427 37.1733 189.733 37.3333 189.2 37.52L188.52 33.56C189.133 33.3467 190 33.16 191.12 33C192.24 32.8133 193.4 32.72 194.6 32.72ZM206.76 42.6C206.76 41.24 206.973 39.96 207.4 38.76C207.827 37.56 208.48 36.52 209.36 35.64C210.24 34.7333 211.347 34.0267 212.68 33.52C214.04 32.9867 215.653 32.72 217.52 32.72C218.64 32.72 219.653 32.8 220.56 32.96C221.467 33.12 222.387 33.3867 223.32 33.76L222.24 37.72C221.707 37.5333 221.107 37.3733 220.44 37.24C219.8 37.08 218.973 37 217.96 37C216.787 37 215.8 37.1467 215 37.44C214.227 37.7067 213.6 38.0933 213.12 38.6C212.64 39.08 212.293 39.6667 212.08 40.36C211.867 41.0533 211.76 41.8 211.76 42.6C211.76 44.3333 212.24 45.6933 213.2 46.68C214.187 47.6667 215.853 48.16 218.2 48.16C218.973 48.16 219.773 48.1067 220.6 48C221.453 47.8933 222.227 47.72 222.92 47.48L223.64 51.52C222.947 51.7867 222.107 52 221.12 52.16C220.133 52.3467 218.973 52.44 217.64 52.44C215.72 52.44 214.067 52.1867 212.68 51.68C211.32 51.1733 210.2 50.48 209.32 49.6C208.44 48.72 207.787 47.68 207.36 46.48C206.96 45.28 206.76 43.9867 206.76 42.6ZM236.36 27.8C236.36 28.76 236.053 29.52 235.44 30.08C234.827 30.64 234.093 30.92 233.24 30.92C232.387 30.92 231.653 30.64 231.04 30.08C230.453 29.52 230.16 28.76 230.16 27.8C230.16 26.8133 230.453 26.04 231.04 25.48C231.653 24.92 232.387 24.64 233.24 24.64C234.093 24.64 234.827 24.92 235.44 25.48C236.053 26.04 236.36 26.8133 236.36 27.8ZM243.68 51.2C242.667 51.68 241.707 52 240.8 52.16C239.92 52.3467 239.107 52.44 238.36 52.44C237.08 52.44 236 52.2533 235.12 51.88C234.267 51.5067 233.573 50.9733 233.04 50.28C232.533 49.56 232.173 48.6933 231.96 47.68C231.747 46.6667 231.64 45.5067 231.64 44.2V37.28H226.44V33.2H236.56V44.84C236.56 45.96 236.76 46.8 237.16 47.36C237.587 47.8933 238.28 48.16 239.24 48.16C239.693 48.16 240.24 48.1067 240.88 48C241.52 47.8667 242.24 47.6133 243.04 47.24L243.68 51.2ZM263.88 42.56C263.88 44.0533 263.667 45.4133 263.24 46.64C262.813 47.84 262.213 48.88 261.44 49.76C260.667 50.64 259.733 51.32 258.64 51.8C257.573 52.28 256.373 52.52 255.04 52.52C253.707 52.52 252.493 52.28 251.4 51.8C250.333 51.32 249.4 50.64 248.6 49.76C247.827 48.88 247.227 47.84 246.8 46.64C246.373 45.4133 246.16 44.0533 246.16 42.56C246.16 41.0933 246.373 39.76 246.8 38.56C247.253 37.3333 247.867 36.2933 248.64 35.44C249.44 34.56 250.387 33.8933 251.48 33.44C252.573 32.96 253.76 32.72 255.04 32.72C256.347 32.72 257.533 32.96 258.6 33.44C259.693 33.8933 260.627 34.56 261.4 35.44C262.2 36.2933 262.813 37.3333 263.24 38.56C263.667 39.76 263.88 41.0933 263.88 42.56ZM251.16 42.6C251.16 44.28 251.453 45.64 252.04 46.68C252.653 47.72 253.627 48.24 254.96 48.24C256.24 48.24 257.2 47.72 257.84 46.68C258.507 45.64 258.84 44.28 258.84 42.6C258.84 40.92 258.533 39.5733 257.92 38.56C257.333 37.52 256.373 37 255.04 37C253.76 37 252.787 37.52 252.12 38.56C251.48 39.5733 251.16 40.92 251.16 42.6ZM259.52 28.12L252.56 31.48L250.76 28.8L257.08 24.36L259.52 28.12ZM267.52 33.8C268.4 33.56 269.48 33.3333 270.76 33.12C272.067 32.9067 273.48 32.8 275 32.8C276.493 32.8 277.733 33.0133 278.72 33.44C279.707 33.84 280.48 34.4267 281.04 35.2C281.627 35.9467 282.04 36.8533 282.28 37.92C282.52 38.96 282.64 40.12 282.64 41.4V52H277.72V42.04C277.72 40.28 277.52 39.0133 277.12 38.24C276.72 37.4667 275.907 37.08 274.68 37.08C274.307 37.08 273.933 37.0933 273.56 37.12C273.213 37.1467 272.84 37.1867 272.44 37.24V52H267.52V33.8ZM56.84 92.52C53.3467 92.52 50.68 91.4 48.84 89.16C47 86.92 46.08 83.7333 46.08 79.6C46.08 77.5467 46.36 75.72 46.92 74.12C47.48 72.52 48.2533 71.1733 49.24 70.08C50.2533 68.96 51.44 68.12 52.8 67.56C54.1867 66.9733 55.6933 66.68 57.32 66.68C58.2 66.68 58.9867 66.76 59.68 66.92C60.4 67.0533 61.0267 67.2133 61.56 67.4C62.0933 67.5867 62.5333 67.7867 62.88 68C63.2533 68.2133 63.5333 68.3733 63.72 68.48L62.44 72.4C61.8267 72 61.08 71.6667 60.2 71.4C59.3467 71.1067 58.36 70.96 57.24 70.96C56.4667 70.96 55.7067 71.1067 54.96 71.4C54.24 71.6667 53.5867 72.1333 53 72.8C52.44 73.44 51.9733 74.3067 51.6 75.4C51.2533 76.4933 51.08 77.8533 51.08 79.48C51.08 82.3067 51.56 84.48 52.52 86C53.5067 87.4933 55.1067 88.24 57.32 88.24C58.6 88.24 59.6533 88.0933 60.48 87.8C61.3333 87.5067 62.0133 87.2133 62.52 86.92L63.76 90.8C63.0667 91.2267 62.12 91.6267 60.92 92C59.7467 92.3467 58.3867 92.52 56.84 92.52ZM83.88 82.56C83.88 84.0533 83.6667 85.4133 83.24 86.64C82.8133 87.84 82.2133 88.88 81.44 89.76C80.6667 90.64 79.7333 91.32 78.64 91.8C77.5733 92.28 76.3733 92.52 75.04 92.52C73.7067 92.52 72.4933 92.28 71.4 91.8C70.3333 91.32 69.4 90.64 68.6 89.76C67.8267 88.88 67.2267 87.84 66.8 86.64C66.3733 85.4133 66.16 84.0533 66.16 82.56C66.16 81.0933 66.3733 79.76 66.8 78.56C67.2533 77.3333 67.8667 76.2933 68.64 75.44C69.44 74.56 70.3867 73.8933 71.48 73.44C72.5733 72.96 73.76 72.72 75.04 72.72C76.3467 72.72 77.5333 72.96 78.6 73.44C79.6933 73.8933 80.6267 74.56 81.4 75.44C82.2 76.2933 82.8133 77.3333 83.24 78.56C83.6667 79.76 83.88 81.0933 83.88 82.56ZM71.16 82.6C71.16 84.28 71.4533 85.64 72.04 86.68C72.6533 87.72 73.6267 88.24 74.96 88.24C76.24 88.24 77.2 87.72 77.84 86.68C78.5067 85.64 78.84 84.28 78.84 82.6C78.84 80.92 78.5333 79.5733 77.92 78.56C77.3333 77.52 76.3733 77 75.04 77C73.76 77 72.7867 77.52 72.12 78.56C71.48 79.5733 71.16 80.92 71.16 82.6ZM98.72 73C99.76 73 100.613 73.16 101.28 73.48C101.947 73.8 102.467 74.28 102.84 74.92C103.24 75.56 103.507 76.3733 103.64 77.36C103.773 78.32 103.84 79.4533 103.84 80.76V92H99.84V80.52C99.84 79.7733 99.7867 79.1733 99.68 78.72C99.6 78.2667 99.48 77.92 99.32 77.68C99.1867 77.44 99.0133 77.28 98.8 77.2C98.6133 77.12 98.4133 77.08 98.2 77.08C97.96 77.08 97.7067 77.1067 97.44 77.16C97.1733 77.1867 96.9333 77.2533 96.72 77.36C96.8 77.8667 96.8667 78.4267 96.92 79.04C96.9733 79.6533 97 80.3333 97 81.08V84.84H93V80.52C93 79.24 92.8667 78.3467 92.6 77.84C92.36 77.3333 91.96 77.08 91.4 77.08C91.24 77.08 91.04 77.0933 90.8 77.12C90.5867 77.1467 90.3733 77.1867 90.16 77.24V92H86.16V73.92C87.2 73.6267 88.2267 73.4 89.24 73.24C90.2533 73.08 91.1467 73 91.92 73C92.6133 73 93.2267 73.0933 93.76 73.28C94.32 73.44 94.8 73.72 95.2 74.12C95.6533 73.8267 96.1867 73.5733 96.8 73.36C97.4133 73.12 98.0533 73 98.72 73ZM118.76 82.76C118.76 81.08 118.427 79.7067 117.76 78.64C117.093 77.5467 116.08 77 114.72 77C114.347 77 113.947 77.0267 113.52 77.08C113.093 77.1067 112.733 77.1333 112.44 77.16V87.48C112.76 87.6933 113.187 87.8667 113.72 88C114.253 88.1333 114.787 88.2 115.32 88.2C116.493 88.2 117.36 87.7333 117.92 86.8C118.48 85.84 118.76 84.4933 118.76 82.76ZM123.76 82.6C123.76 84.04 123.6 85.3733 123.28 86.6C122.96 87.8 122.493 88.84 121.88 89.72C121.267 90.5733 120.493 91.24 119.56 91.72C118.627 92.2 117.547 92.44 116.32 92.44C115.067 92.44 113.773 92.1333 112.44 91.52V98.6H107.52V73.8C108.427 73.5067 109.533 73.2667 110.84 73.08C112.173 72.8933 113.48 72.8 114.76 72.8C117.667 72.8 119.893 73.68 121.44 75.44C122.987 77.2 123.76 79.5867 123.76 82.6ZM126.24 82.76C126.24 81.1067 126.493 79.6533 127 78.4C127.507 77.1467 128.173 76.1067 129 75.28C129.827 74.4267 130.773 73.7867 131.84 73.36C132.907 72.9333 134 72.72 135.12 72.72C137.893 72.72 140 73.5467 141.44 75.2C142.88 76.8267 143.6 79.2133 143.6 82.36C143.6 82.68 143.587 83.0133 143.56 83.36C143.56 83.7067 143.547 83.9867 143.52 84.2H131.32C131.32 85.4267 131.827 86.4 132.84 87.12C133.853 87.8133 135.16 88.16 136.76 88.16C137.747 88.16 138.68 88.0533 139.56 87.84C140.467 87.6267 141.227 87.4133 141.84 87.2L142.52 91.4C141.667 91.6933 140.76 91.9333 139.8 92.12C138.84 92.3333 137.76 92.44 136.56 92.44C134.96 92.44 133.52 92.24 132.24 91.84C130.987 91.4133 129.907 90.8 129 90C128.12 89.1733 127.44 88.16 126.96 86.96C126.48 85.76 126.24 84.36 126.24 82.76ZM138.84 80.8C138.84 80.2933 138.773 79.8133 138.64 79.36C138.507 78.88 138.293 78.4533 138 78.08C137.707 77.7067 137.333 77.4133 136.88 77.2C136.427 76.96 135.867 76.84 135.2 76.84C134.56 76.84 134 76.9467 133.52 77.16C133.067 77.3733 132.68 77.6667 132.36 78.04C132.067 78.4133 131.827 78.84 131.64 79.32C131.48 79.8 131.373 80.2933 131.32 80.8H138.84ZM150.72 77.28H146.44V73.2H150.72V68.48L155.64 67.68V73.2H163.52V77.28H155.64V84.88C155.64 85.5733 155.707 86.1333 155.84 86.56C155.973 86.9867 156.16 87.32 156.4 87.56C156.64 87.8 156.933 87.96 157.28 88.04C157.627 88.12 158.013 88.16 158.44 88.16C158.893 88.16 159.307 88.1467 159.68 88.12C160.08 88.0933 160.453 88.0533 160.8 88C161.173 87.92 161.547 87.8133 161.92 87.68C162.32 87.5467 162.747 87.3733 163.2 87.16L163.88 91.4C162.973 91.7733 161.987 92.04 160.92 92.2C159.88 92.36 158.867 92.44 157.88 92.44C156.733 92.44 155.72 92.3467 154.84 92.16C153.96 91.9733 153.213 91.6133 152.6 91.08C151.987 90.5467 151.52 89.8 151.2 88.84C150.88 87.8533 150.72 86.5733 150.72 85V77.28ZM176.36 67.8C176.36 68.76 176.053 69.52 175.44 70.08C174.827 70.64 174.093 70.92 173.24 70.92C172.387 70.92 171.653 70.64 171.04 70.08C170.453 69.52 170.16 68.76 170.16 67.8C170.16 66.8133 170.453 66.04 171.04 65.48C171.653 64.92 172.387 64.64 173.24 64.64C174.093 64.64 174.827 64.92 175.44 65.48C176.053 66.04 176.36 66.8133 176.36 67.8ZM183.68 91.2C182.667 91.68 181.707 92 180.8 92.16C179.92 92.3467 179.107 92.44 178.36 92.44C177.08 92.44 176 92.2533 175.12 91.88C174.267 91.5067 173.573 90.9733 173.04 90.28C172.533 89.56 172.173 88.6933 171.96 87.68C171.747 86.6667 171.64 85.5067 171.64 84.2V77.28H166.44V73.2H176.56V84.84C176.56 85.96 176.76 86.8 177.16 87.36C177.587 87.8933 178.28 88.16 179.24 88.16C179.693 88.16 180.24 88.1067 180.88 88C181.52 87.8667 182.24 87.6133 183.04 87.24L183.68 91.2ZM190.72 77.28H186.44V73.2H190.72V68.48L195.64 67.68V73.2H203.52V77.28H195.64V84.88C195.64 85.5733 195.707 86.1333 195.84 86.56C195.973 86.9867 196.16 87.32 196.4 87.56C196.64 87.8 196.933 87.96 197.28 88.04C197.627 88.12 198.013 88.16 198.44 88.16C198.893 88.16 199.307 88.1467 199.68 88.12C200.08 88.0933 200.453 88.0533 200.8 88C201.173 87.92 201.547 87.8133 201.92 87.68C202.32 87.5467 202.747 87.3733 203.2 87.16L203.88 91.4C202.973 91.7733 201.987 92.04 200.92 92.2C199.88 92.36 198.867 92.44 197.88 92.44C196.733 92.44 195.72 92.3467 194.84 92.16C193.96 91.9733 193.213 91.6133 192.6 91.08C191.987 90.5467 191.52 89.8 191.2 88.84C190.88 87.8533 190.72 86.5733 190.72 85V77.28ZM216.36 67.8C216.36 68.76 216.053 69.52 215.44 70.08C214.827 70.64 214.093 70.92 213.24 70.92C212.387 70.92 211.653 70.64 211.04 70.08C210.453 69.52 210.16 68.76 210.16 67.8C210.16 66.8133 210.453 66.04 211.04 65.48C211.653 64.92 212.387 64.64 213.24 64.64C214.093 64.64 214.827 64.92 215.44 65.48C216.053 66.04 216.36 66.8133 216.36 67.8ZM223.68 91.2C222.667 91.68 221.707 92 220.8 92.16C219.92 92.3467 219.107 92.44 218.36 92.44C217.08 92.44 216 92.2533 215.12 91.88C214.267 91.5067 213.573 90.9733 213.04 90.28C212.533 89.56 212.173 88.6933 211.96 87.68C211.747 86.6667 211.64 85.5067 211.64 84.2V77.28H206.44V73.2H216.56V84.84C216.56 85.96 216.76 86.8 217.16 87.36C217.587 87.8933 218.28 88.16 219.24 88.16C219.693 88.16 220.24 88.1067 220.88 88C221.52 87.8667 222.24 87.6133 223.04 87.24L223.68 91.2ZM232.76 92C231.56 89.6267 230.333 86.8533 229.08 83.68C227.853 80.48 226.68 76.9867 225.56 73.2H230.72C230.96 74.2133 231.24 75.2933 231.56 76.44C231.907 77.5867 232.267 78.7467 232.64 79.92C233.013 81.0667 233.387 82.1867 233.76 83.28C234.16 84.3733 234.533 85.3733 234.88 86.28C235.227 85.3733 235.613 84.3733 236.04 83.28C236.467 82.1867 236.88 81.0667 237.28 79.92C237.707 78.7467 238.107 77.5867 238.48 76.44C238.88 75.2933 239.2 74.2133 239.44 73.2H244.44C243.32 76.9867 242.08 80.48 240.72 83.68C239.36 86.8533 238.08 89.6267 236.88 92H232.76ZM255.04 88.48C255.573 88.48 256.093 88.48 256.6 88.48C257.107 88.4533 257.547 88.4133 257.92 88.36V84.04C257.6 83.9867 257.213 83.9467 256.76 83.92C256.307 83.8667 255.893 83.84 255.52 83.84C255.013 83.84 254.52 83.88 254.04 83.96C253.56 84.0133 253.133 84.12 252.76 84.28C252.413 84.44 252.133 84.6667 251.92 84.96C251.707 85.2533 251.6 85.64 251.6 86.12C251.6 86.9733 251.92 87.5867 252.56 87.96C253.2 88.3067 254.027 88.48 255.04 88.48ZM254.6 72.72C256.147 72.72 257.427 72.9067 258.44 73.28C259.48 73.6267 260.307 74.1333 260.92 74.8C261.533 75.44 261.973 76.24 262.24 77.2C262.507 78.1333 262.64 79.1867 262.64 80.36V91.56C261.92 91.72 260.853 91.9067 259.44 92.12C258.027 92.3333 256.44 92.44 254.68 92.44C253.48 92.44 252.387 92.3333 251.4 92.12C250.44 91.9067 249.613 91.56 248.92 91.08C248.227 90.5733 247.693 89.9333 247.32 89.16C246.947 88.36 246.76 87.3867 246.76 86.24C246.76 85.1467 246.973 84.2267 247.4 83.48C247.827 82.7333 248.4 82.1333 249.12 81.68C249.84 81.2267 250.667 80.9067 251.6 80.72C252.533 80.5067 253.507 80.4 254.52 80.4C255.8 80.4 256.933 80.5067 257.92 80.72V80.12C257.92 79.1867 257.627 78.4133 257.04 77.8C256.453 77.16 255.44 76.84 254 76.84C253.067 76.84 252.16 76.9067 251.28 77.04C250.427 77.1733 249.733 77.3333 249.2 77.52L248.52 73.56C249.133 73.3467 250 73.16 251.12 73C252.24 72.8133 253.4 72.72 254.6 72.72ZM56.84 132.52C53.3467 132.52 50.68 131.4 48.84 129.16C47 126.92 46.08 123.733 46.08 119.6C46.08 117.547 46.36 115.72 46.92 114.12C47.48 112.52 48.2533 111.173 49.24 110.08C50.2533 108.96 51.44 108.12 52.8 107.56C54.1867 106.973 55.6933 106.68 57.32 106.68C58.2 106.68 58.9867 106.76 59.68 106.92C60.4 107.053 61.0267 107.213 61.56 107.4C62.0933 107.587 62.5333 107.787 62.88 108C63.2533 108.213 63.5333 108.373 63.72 108.48L62.44 112.4C61.8267 112 61.08 111.667 60.2 111.4C59.3467 111.107 58.36 110.96 57.24 110.96C56.4667 110.96 55.7067 111.107 54.96 111.4C54.24 111.667 53.5867 112.133 53 112.8C52.44 113.44 51.9733 114.307 51.6 115.4C51.2533 116.493 51.08 117.853 51.08 119.48C51.08 122.307 51.56 124.48 52.52 126C53.5067 127.493 55.1067 128.24 57.32 128.24C58.6 128.24 59.6533 128.093 60.48 127.8C61.3333 127.507 62.0133 127.213 62.52 126.92L63.76 130.8C63.0667 131.227 62.12 131.627 60.92 132C59.7467 132.347 58.3867 132.52 56.84 132.52ZM83.88 122.56C83.88 124.053 83.6667 125.413 83.24 126.64C82.8133 127.84 82.2133 128.88 81.44 129.76C80.6667 130.64 79.7333 131.32 78.64 131.8C77.5733 132.28 76.3733 132.52 75.04 132.52C73.7067 132.52 72.4933 132.28 71.4 131.8C70.3333 131.32 69.4 130.64 68.6 129.76C67.8267 128.88 67.2267 127.84 66.8 126.64C66.3733 125.413 66.16 124.053 66.16 122.56C66.16 121.093 66.3733 119.76 66.8 118.56C67.2533 117.333 67.8667 116.293 68.64 115.44C69.44 114.56 70.3867 113.893 71.48 113.44C72.5733 112.96 73.76 112.72 75.04 112.72C76.3467 112.72 77.5333 112.96 78.6 113.44C79.6933 113.893 80.6267 114.56 81.4 115.44C82.2 116.293 82.8133 117.333 83.24 118.56C83.6667 119.76 83.88 121.093 83.88 122.56ZM71.16 122.6C71.16 124.28 71.4533 125.64 72.04 126.68C72.6533 127.72 73.6267 128.24 74.96 128.24C76.24 128.24 77.2 127.72 77.84 126.68C78.5067 125.64 78.84 124.28 78.84 122.6C78.84 120.92 78.5333 119.573 77.92 118.56C77.3333 117.52 76.3733 117 75.04 117C73.76 117 72.7867 117.52 72.12 118.56C71.48 119.573 71.16 120.92 71.16 122.6ZM79.52 108.12L72.56 111.48L70.76 108.8L77.08 104.36L79.52 108.12ZM102.48 118.2C102.16 118.12 101.773 118.04 101.32 117.96C100.893 117.88 100.453 117.813 100 117.76C99.5467 117.68 99.1067 117.627 98.68 117.6C98.2533 117.573 97.8933 117.56 97.6 117.56C96.9067 117.56 96.2267 117.6 95.56 117.68C94.8933 117.733 94.2133 117.853 93.52 118.04V132H88.56V114.44C89.8667 113.96 91.2 113.573 92.56 113.28C93.9467 112.987 95.56 112.84 97.4 112.84C97.6667 112.84 98.04 112.853 98.52 112.88C99.0267 112.907 99.56 112.96 100.12 113.04C100.68 113.093 101.24 113.173 101.8 113.28C102.387 113.36 102.907 113.48 103.36 113.64L102.48 118.2ZM111.12 122.48C111.12 124.16 111.427 125.533 112.04 126.6C112.68 127.667 113.693 128.2 115.08 128.2C115.48 128.2 115.853 128.187 116.2 128.16C116.547 128.133 116.907 128.093 117.28 128.04V117.8C116.907 117.587 116.48 117.413 116 117.28C115.52 117.12 115.013 117.04 114.48 117.04C113.307 117.04 112.453 117.507 111.92 118.44C111.387 119.373 111.12 120.72 111.12 122.48ZM122.2 131.44C121.293 131.733 120.187 131.973 118.88 132.16C117.573 132.347 116.293 132.44 115.04 132.44C112.107 132.44 109.88 131.573 108.36 129.84C106.867 128.107 106.12 125.733 106.12 122.72C106.12 119.653 106.747 117.24 108 115.48C109.28 113.693 111.16 112.8 113.64 112.8C114.307 112.8 114.96 112.88 115.6 113.04C116.24 113.173 116.8 113.373 117.28 113.64V105.08L122.2 104.24V131.44ZM143.88 122.56C143.88 124.053 143.667 125.413 143.24 126.64C142.813 127.84 142.213 128.88 141.44 129.76C140.667 130.64 139.733 131.32 138.64 131.8C137.573 132.28 136.373 132.52 135.04 132.52C133.707 132.52 132.493 132.28 131.4 131.8C130.333 131.32 129.4 130.64 128.6 129.76C127.827 128.88 127.227 127.84 126.8 126.64C126.373 125.413 126.16 124.053 126.16 122.56C126.16 121.093 126.373 119.76 126.8 118.56C127.253 117.333 127.867 116.293 128.64 115.44C129.44 114.56 130.387 113.893 131.48 113.44C132.573 112.96 133.76 112.72 135.04 112.72C136.347 112.72 137.533 112.96 138.6 113.44C139.693 113.893 140.627 114.56 141.4 115.44C142.2 116.293 142.813 117.333 143.24 118.56C143.667 119.76 143.88 121.093 143.88 122.56ZM131.16 122.6C131.16 124.28 131.453 125.64 132.04 126.68C132.653 127.72 133.627 128.24 134.96 128.24C136.24 128.24 137.2 127.72 137.84 126.68C138.507 125.64 138.84 124.28 138.84 122.6C138.84 120.92 138.533 119.573 137.92 118.56C137.333 117.52 136.373 117 135.04 117C133.76 117 132.787 117.52 132.12 118.56C131.48 119.573 131.16 120.92 131.16 122.6ZM158.8 122.48C158.8 120.72 158.507 119.373 157.92 118.44C157.36 117.507 156.493 117.04 155.32 117.04C154.787 117.04 154.253 117.12 153.72 117.28C153.213 117.413 152.773 117.587 152.4 117.8V128C152.773 128.08 153.16 128.133 153.56 128.16C153.987 128.187 154.347 128.2 154.64 128.2C155.92 128.2 156.933 127.773 157.68 126.92C158.427 126.04 158.8 124.56 158.8 122.48ZM163.8 122.6C163.8 124.093 163.6 125.453 163.2 126.68C162.8 127.88 162.213 128.907 161.44 129.76C160.667 130.613 159.72 131.28 158.6 131.76C157.48 132.213 156.2 132.44 154.76 132.44C153.48 132.44 152.173 132.347 150.84 132.16C149.507 131.973 148.387 131.733 147.48 131.44V105.08L152.4 104.24V113.64C153.093 113.32 153.76 113.107 154.4 113C155.04 112.867 155.68 112.8 156.32 112.8C157.547 112.8 158.627 113.04 159.56 113.52C160.493 113.973 161.267 114.64 161.88 115.52C162.52 116.373 163 117.4 163.32 118.6C163.64 119.8 163.8 121.133 163.8 122.6ZM175.04 128.48C175.573 128.48 176.093 128.48 176.6 128.48C177.107 128.453 177.547 128.413 177.92 128.36V124.04C177.6 123.987 177.213 123.947 176.76 123.92C176.307 123.867 175.893 123.84 175.52 123.84C175.013 123.84 174.52 123.88 174.04 123.96C173.56 124.013 173.133 124.12 172.76 124.28C172.413 124.44 172.133 124.667 171.92 124.96C171.707 125.253 171.6 125.64 171.6 126.12C171.6 126.973 171.92 127.587 172.56 127.96C173.2 128.307 174.027 128.48 175.04 128.48ZM174.6 112.72C176.147 112.72 177.427 112.907 178.44 113.28C179.48 113.627 180.307 114.133 180.92 114.8C181.533 115.44 181.973 116.24 182.24 117.2C182.507 118.133 182.64 119.187 182.64 120.36V131.56C181.92 131.72 180.853 131.907 179.44 132.12C178.027 132.333 176.44 132.44 174.68 132.44C173.48 132.44 172.387 132.333 171.4 132.12C170.44 131.907 169.613 131.56 168.92 131.08C168.227 130.573 167.693 129.933 167.32 129.16C166.947 128.36 166.76 127.387 166.76 126.24C166.76 125.147 166.973 124.227 167.4 123.48C167.827 122.733 168.4 122.133 169.12 121.68C169.84 121.227 170.667 120.907 171.6 120.72C172.533 120.507 173.507 120.4 174.52 120.4C175.8 120.4 176.933 120.507 177.92 120.72V120.12C177.92 119.187 177.627 118.413 177.04 117.8C176.453 117.16 175.44 116.84 174 116.84C173.067 116.84 172.16 116.907 171.28 117.04C170.427 117.173 169.733 117.333 169.2 117.52L168.52 113.56C169.133 113.347 170 113.16 171.12 113C172.24 112.813 173.4 112.72 174.6 112.72Z" fill="#E4F9E4"/>
<g style="mix-blend-mode:color-burn" opacity="0.4">
<rect width="37" height="203" fill="#C4C4C4"/>
</g>
<path d="M17.52 47.92V34.08C16.7733 34.6133 15.92 35.0933 14.96 35.52C14 35.92 13.1867 36.24 12.52 36.48L10.92 32.4C11.56 32.16 12.2533 31.8533 13 31.48C13.7467 31.1067 14.4933 30.6933 15.24 30.24C15.9867 29.7867 16.6933 29.3067 17.36 28.8C18.0267 28.2933 18.6 27.7733 19.08 27.24H22.44V47.92H27.36V52H12.32V47.92H17.52ZM26.36 73.76C26.36 74.6133 26.2 75.44 25.88 76.24C25.56 77.0133 25.1333 77.7733 24.6 78.52C24.0667 79.2667 23.4667 79.9867 22.8 80.68C22.1333 81.3733 21.4533 82.04 20.76 82.68C20.4133 83 20.0133 83.3867 19.56 83.84C19.1067 84.2667 18.68 84.72 18.28 85.2C17.88 85.6533 17.5333 86.12 17.24 86.6C16.9733 87.08 16.84 87.52 16.84 87.92H27.48V92H11.32C11.24 91.7333 11.2 91.4 11.2 91C11.2267 90.6 11.24 90.32 11.24 90.16C11.24 88.8267 11.48 87.6 11.96 86.48C12.4667 85.36 13.0933 84.3333 13.84 83.4C14.6133 82.44 15.4267 81.56 16.28 80.76C17.16 79.9333 17.9733 79.1467 18.72 78.4C19.4933 77.6533 20.12 76.9333 20.6 76.24C21.1067 75.5467 21.36 74.84 21.36 74.12C21.36 73.1067 21.0533 72.3333 20.44 71.8C19.8267 71.24 19.0533 70.96 18.12 70.96C17.3467 70.96 16.5333 71.1467 15.68 71.52C14.8267 71.8933 13.9867 72.52 13.16 73.4L10.72 69.96C11.7867 68.84 13.0133 68.0133 14.4 67.48C15.8133 66.9467 17.2133 66.68 18.6 66.68C19.6133 66.68 20.5867 66.8267 21.52 67.12C22.4533 67.4133 23.28 67.8533 24 68.44C24.72 69.0267 25.2933 69.7733 25.72 70.68C26.1467 71.56 26.36 72.5867 26.36 73.76ZM17.52 132.52C16.9067 132.52 16.2533 132.467 15.56 132.36C14.8933 132.28 14.24 132.173 13.6 132.04C12.9867 131.907 12.4133 131.76 11.88 131.6C11.3467 131.44 10.9333 131.293 10.64 131.16L11.6 127.04C12.2133 127.307 13 127.587 13.96 127.88C14.9467 128.173 16.12 128.32 17.48 128.32C19.16 128.32 20.3333 127.96 21 127.24C21.6933 126.52 22.04 125.627 22.04 124.56C22.04 123.253 21.52 122.347 20.48 121.84C19.44 121.307 18.12 121.04 16.52 121.04H15V116.96H16.84C17.3467 116.96 17.8533 116.907 18.36 116.8C18.8667 116.693 19.32 116.52 19.72 116.28C20.12 116.04 20.44 115.72 20.68 115.32C20.9467 114.92 21.08 114.413 21.08 113.8C21.08 112.893 20.8 112.187 20.24 111.68C19.7067 111.147 18.96 110.88 18 110.88C17.0667 110.88 16.1333 111.04 15.2 111.36C14.2933 111.653 13.5067 112.027 12.84 112.48L11.08 108.88C11.8 108.4 12.7467 107.92 13.92 107.44C15.12 106.933 16.4667 106.68 17.96 106.68C19.3467 106.68 20.5467 106.853 21.56 107.2C22.6 107.547 23.4533 108.04 24.12 108.68C24.7867 109.293 25.28 110.027 25.6 110.88C25.92 111.733 26.08 112.653 26.08 113.64C26.08 114.627 25.8 115.573 25.24 116.48C24.68 117.387 23.9333 118.08 23 118.56C24.28 119.093 25.2667 119.88 25.96 120.92C26.68 121.96 27.04 123.2 27.04 124.64C27.04 125.787 26.8533 126.84 26.48 127.8C26.1067 128.76 25.5333 129.6 24.76 130.32C23.9867 131.013 23 131.56 21.8 131.96C20.6 132.333 19.1733 132.52 17.52 132.52ZM20.4 153.4C19.92 154.013 19.4267 154.667 18.92 155.36C18.4133 156.053 17.9067 156.787 17.4 157.56C16.92 158.307 16.4533 159.067 16 159.84C15.5467 160.613 15.1467 161.373 14.8 162.12H20.4V153.4ZM25.32 147.24V162.12H28V166.16H25.32V172H20.4V166.16H10.08V162.56C10.5867 161.52 11.24 160.347 12.04 159.04C12.84 157.707 13.72 156.347 14.68 154.96C15.64 153.573 16.6533 152.213 17.72 150.88C18.7867 149.52 19.8533 148.307 20.92 147.24H25.32Z" fill="#ECFF75"/>
<line x1="54" y1="202.5" x2="278" y2="202.5" stroke="black" stroke-opacity="0.1"/>
</svg>

